<?xml version="1.0" encoding="UTF-8"?>
<!DOCTYPE svg PUBLIC "-//W3C//DTD SVG 1.1//EN" "http://www.w3.org/Graphics/SVG/1.1/DTD/svg11.dtd">
<svg xmlns="http://www.w3.org/2000/svg" version="1.1" width="500px" height="500px" style="shape-rendering:geometricPrecision; text-rendering:geometricPrecision; image-rendering:optimizeQuality; fill-rule:evenodd; clip-rule:evenodd" xmlns:xlink="http://www.w3.org/1999/xlink">
<g><path style="opacity:1" fill="#000000" d="M 317.5,4.5 C 318.833,5.16667 318.833,5.16667 317.5,4.5 Z"/></g>
<g><path style="opacity:1" fill="#000000" d="M 60.5,5.5 C 61.8333,6.16667 61.8333,6.16667 60.5,5.5 Z"/></g>
<g><path style="opacity:1" fill="#000000" d="M 7.5,13.5 C 8.83333,14.1667 8.83333,14.1667 7.5,13.5 Z"/></g>
<g><path style="opacity:1" fill="#000000" d="M 15.5,27.5 C 16.8333,28.1667 16.8333,28.1667 15.5,27.5 Z"/></g>
<g><path style="opacity:1" fill="#000000" d="M 245.5,28.5 C 246.833,29.1667 246.833,29.1667 245.5,28.5 Z"/></g>
<g><path style="opacity:1" fill="#000000" d="M 303.5,43.5 C 304.833,44.1667 304.833,44.1667 303.5,43.5 Z"/></g>
<g><path style="opacity:1" fill="#000000" d="M 250.5,45.5 C 251.833,46.1667 251.833,46.1667 250.5,45.5 Z"/></g>
<g><path style="opacity:1" fill="#000000" d="M 324.5,45.5 C 325.833,46.1667 325.833,46.1667 324.5,45.5 Z"/></g>
<g><path style="opacity:1" fill="#000000" d="M 130.5,46.5 C 131.833,47.1667 131.833,47.1667 130.5,46.5 Z"/></g>
<g><path style="opacity:1" fill="#000000" d="M 466.5,49.5 C 467.833,50.1667 467.833,50.1667 466.5,49.5 Z"/></g>
<g><path style="opacity:1" fill="#000000" d="M 91.5,51.5 C 92.8333,52.1667 92.8333,52.1667 91.5,51.5 Z"/></g>
<g><path style="opacity:1" fill="#000000" d="M 208.5,55.5 C 209.833,56.1667 209.833,56.1667 208.5,55.5 Z"/></g>
<g><path style="opacity:1" fill="#000000" d="M 143.5,64.5 C 144.833,65.1667 144.833,65.1667 143.5,64.5 Z"/></g>
<g><path style="opacity:1" fill="#000000" d="M 153.5,69.5 C 154.833,70.1667 154.833,70.1667 153.5,69.5 Z"/></g>
<g><path style="opacity:1" fill="#000000" d="M 109.5,71.5 C 110.833,72.1667 110.833,72.1667 109.5,71.5 Z"/></g>
<g><path style="opacity:1" fill="#000000" d="M 93.5,76.5 C 94.8333,77.1667 94.8333,77.1667 93.5,76.5 Z"/></g>
<g><path style="opacity:1" fill="#000000" d="M 235.5,77.5 C 236.833,78.1667 236.833,78.1667 235.5,77.5 Z"/></g>
<g><path style="opacity:1" fill="#000000" d="M 0.5,79.5 C 1.83333,80.1667 1.83333,80.1667 0.5,79.5 Z"/></g>
<g><path style="opacity:1" fill="#000000" d="M 202.5,89.5 C 203.833,90.1667 203.833,90.1667 202.5,89.5 Z"/></g>
<g><path style="opacity:1" fill="#000000" d="M 224.5,91.5 C 225.833,92.1667 225.833,92.1667 224.5,91.5 Z"/></g>
<g><path style="opacity:1" fill="#f9f9f9" d="M 378.5,216.5 C 377.501,275.664 377.168,334.998 377.5,394.5C 374.798,403.359 368.798,406.859 359.5,405C 357.754,404.529 356.087,403.862 354.5,403C 344.212,389.59 334.045,376.09 324,362.5C 317.348,375.135 310.682,387.802 304,400.5C 295.716,407.406 287.716,407.072 280,399.5C 269.994,386.001 259.827,372.667 249.5,359.5C 238.454,373.052 227.954,387.052 218,401.5C 210.153,407.81 202.487,407.477 195,400.5C 188.755,387.677 182.255,375.01 175.5,362.5C 165.53,376.27 155.197,389.77 144.5,403C 136.379,407.175 129.212,406.009 123,399.5C 122.027,397.608 121.36,395.608 121,393.5C 120.333,332.167 120.333,270.833 121,209.5C 127.191,158.327 153.691,122.161 200.5,101C 249.926,83.4216 294.926,91.0883 335.5,124C 362.092,149.024 376.426,179.857 378.5,216.5 Z M 248.5,120.5 C 298.406,123.58 330.906,148.913 346,196.5C 347.714,204.072 348.714,211.739 349,219.5C 349.667,261.833 349.667,304.167 349,346.5C 342.62,338.242 336.12,330.076 329.5,322C 321.737,317.933 314.904,319.099 309,325.5C 302.667,338.167 296.333,350.833 290,363.5C 280.333,350.5 270.667,337.5 261,324.5C 254.063,318.368 246.897,318.035 239.5,323.5C 229.469,336.524 219.469,349.524 209.5,362.5C 203.078,350.657 196.911,338.657 191,326.5C 184.531,318.624 177.031,317.457 168.5,323C 162.301,330.566 156.468,338.399 151,346.5C 150.333,299.5 150.333,252.5 151,205.5C 158.856,164.976 182.356,138.143 221.5,125C 230.502,122.611 239.502,121.111 248.5,120.5 Z"/></g>
<g><path style="opacity:1" fill="#000000" d="M 433.5,100.5 C 434.833,101.167 434.833,101.167 433.5,100.5 Z"/></g>
<g><path style="opacity:1" fill="#000000" d="M 410.5,102.5 C 411.833,103.167 411.833,103.167 410.5,102.5 Z"/></g>
<g><path style="opacity:1" fill="#000000" d="M 456.5,120.5 C 457.833,121.167 457.833,121.167 456.5,120.5 Z"/></g>
<g><path style="opacity:1" fill="#000000" d="M 105.5,129.5 C 106.833,130.167 106.833,130.167 105.5,129.5 Z"/></g>
<g><path style="opacity:1" fill="#000000" d="M 424.5,131.5 C 425.833,132.167 425.833,132.167 424.5,131.5 Z"/></g>
<g><path style="opacity:1" fill="#000000" d="M 471.5,143.5 C 472.833,144.167 472.833,144.167 471.5,143.5 Z"/></g>
<g><path style="opacity:1" fill="#000000" d="M 444.5,147.5 C 445.833,148.167 445.833,148.167 444.5,147.5 Z"/></g>
<g><path style="opacity:1" fill="#000000" d="M 396.5,167.5 C 397.833,168.167 397.833,168.167 396.5,167.5 Z"/></g>
<g><path style="opacity:1" fill="#000000" d="M 2.5,171.5 C 3.83333,172.167 3.83333,172.167 2.5,171.5 Z"/></g>
<g><path style="opacity:1" fill="#000000" d="M 450.5,177.5 C 451.833,178.167 451.833,178.167 450.5,177.5 Z"/></g>
<g><path style="opacity:1" fill="#000000" d="M 121.5,184.5 C 122.833,185.167 122.833,185.167 121.5,184.5 Z"/></g>
<g><path style="opacity:1" fill="#000000" d="M 14.5,187.5 C 15.8333,188.167 15.8333,188.167 14.5,187.5 Z"/></g>
<g><path style="opacity:1" fill="#f85253" d="M 199.5,247.5 C 198.208,229.855 198.208,212.189 199.5,194.5C 200.909,193.151 202.243,191.818 203.5,190.5C 211.087,189.369 218.754,189.202 226.5,190C 228.848,190.346 230.681,191.513 232,193.5C 233.637,210.075 233.97,226.742 233,243.5C 232.654,245.848 231.487,247.681 229.5,249C 220.167,249.667 210.833,249.667 201.5,249C 200.584,248.722 199.918,248.222 199.5,247.5 Z"/></g>
<g><path style="opacity:1" fill="#000000" d="M 2.5,192.5 C 3.83333,193.167 3.83333,193.167 2.5,192.5 Z"/></g>
<g><path style="opacity:1" fill="#f95252" d="M 298.5,191.5 C 298.231,193.429 298.731,195.095 300,196.5C 300.447,213.009 300.614,229.342 300.5,245.5C 300.5,247.5 299.5,248.5 297.5,248.5C 290.159,248.666 282.826,248.5 275.5,248C 272.445,247.481 270.111,245.981 268.5,243.5C 268.818,242.353 269.484,241.519 270.5,241C 268.614,230.283 268.114,219.45 269,208.5C 269.5,207.333 270.333,206.5 271.5,206C 268.053,202.2 268.053,198.534 271.5,195C 270.272,193.51 270.272,192.01 271.5,190.5C 275.419,189.865 279.419,189.532 283.5,189.5C 288.767,189.287 293.767,189.954 298.5,191.5 Z"/></g>
<g><path style="opacity:1" fill="#e44848" d="M 203.5,190.5 C 202.243,191.818 200.909,193.151 199.5,194.5C 198.208,212.189 198.208,229.855 199.5,247.5C 198.778,247.082 198.278,246.416 198,245.5C 197.343,229.162 197.01,212.829 197,196.5C 197.728,192.939 199.894,190.939 203.5,190.5 Z"/></g>
<g><path style="opacity:1" fill="#ed545d" d="M 271.5,190.5 C 270.272,192.01 270.272,193.51 271.5,195C 268.053,198.534 268.053,202.2 271.5,206C 270.333,206.5 269.5,207.333 269,208.5C 268.114,219.45 268.614,230.283 270.5,241C 269.484,241.519 268.818,242.353 268.5,243.5C 270.111,245.981 272.445,247.481 275.5,248C 282.826,248.5 290.159,248.666 297.5,248.5C 289.098,249.18 280.598,249.846 272,250.5C 270.045,249.547 268.378,248.213 267,246.5C 265.377,229.9 265.044,213.233 266,196.5C 266.649,193.353 268.482,191.353 271.5,190.5 Z"/></g>
<g><path style="opacity:1" fill="#000000" d="M 78.5,210.5 C 79.8333,211.167 79.8333,211.167 78.5,210.5 Z"/></g>
<g><path style="opacity:1" fill="#000000" d="M 395.5,213.5 C 396.833,214.167 396.833,214.167 395.5,213.5 Z"/></g>
<g><path style="opacity:1" fill="#e1e1e1" d="M 378.5,216.5 C 379.377,275.866 379.044,335.199 377.5,394.5C 377.168,334.998 377.501,275.664 378.5,216.5 Z"/></g>
<g><path style="opacity:1" fill="#f14c45" d="M 298.5,191.5 C 300.61,192.453 301.777,194.119 302,196.5C 302.667,211.833 302.667,227.167 302,242.5C 301.768,243.737 301.268,244.737 300.5,245.5C 300.614,229.342 300.447,213.009 300,196.5C 298.731,195.095 298.231,193.429 298.5,191.5 Z"/></g>
<g><path style="opacity:1" fill="#000000" d="M 453.5,224.5 C 454.833,225.167 454.833,225.167 453.5,224.5 Z"/></g>
<g><path style="opacity:1" fill="#000000" d="M 455.5,237.5 C 456.833,238.167 456.833,238.167 455.5,237.5 Z"/></g>
<g><path style="opacity:1" fill="#000000" d="M 3.5,256.5 C 4.83333,257.167 4.83333,257.167 3.5,256.5 Z"/></g>
<g><path style="opacity:1" fill="#000000" d="M 75.5,260.5 C 76.8333,261.167 76.8333,261.167 75.5,260.5 Z"/></g>
<g><path style="opacity:1" fill="#000000" d="M 419.5,269.5 C 420.833,270.167 420.833,270.167 419.5,269.5 Z"/></g>
<g><path style="opacity:1" fill="#000000" d="M 100.5,275.5 C 101.833,276.167 101.833,276.167 100.5,275.5 Z"/></g>
<g><path style="opacity:1" fill="#000000" d="M 54.5,285.5 C 55.8333,286.167 55.8333,286.167 54.5,285.5 Z"/></g>
<g><path style="opacity:1" fill="#000000" d="M 55.5,294.5 C 56.8333,295.167 56.8333,295.167 55.5,294.5 Z"/></g>
<g><path style="opacity:1" fill="#000000" d="M 472.5,298.5 C 473.833,299.167 473.833,299.167 472.5,298.5 Z"/></g>
<g><path style="opacity:1" fill="#000000" d="M 443.5,312.5 C 444.833,313.167 444.833,313.167 443.5,312.5 Z"/></g>
<g><path style="opacity:1" fill="#000000" d="M 469.5,323.5 C 470.833,324.167 470.833,324.167 469.5,323.5 Z"/></g>
<g><path style="opacity:1" fill="#000000" d="M 77.5,339.5 C 78.8333,340.167 78.8333,340.167 77.5,339.5 Z"/></g>
<g><path style="opacity:1" fill="#000000" d="M 408.5,345.5 C 409.833,346.167 409.833,346.167 408.5,345.5 Z"/></g>
<g><path style="opacity:1" fill="#000000" d="M 440.5,351.5 C 441.833,352.167 441.833,352.167 440.5,351.5 Z"/></g>
<g><path style="opacity:1" fill="#000000" d="M 29.5,375.5 C 30.8333,376.167 30.8333,376.167 29.5,375.5 Z"/></g>
<g><path style="opacity:1" fill="#000000" d="M 420.5,375.5 C 421.833,376.167 421.833,376.167 420.5,375.5 Z"/></g>
<g><path style="opacity:1" fill="#000000" d="M 43.5,389.5 C 44.8333,390.167 44.8333,390.167 43.5,389.5 Z"/></g>
<g><path style="opacity:1" fill="#000000" d="M 32.5,390.5 C 33.8333,391.167 33.8333,391.167 32.5,390.5 Z"/></g>
<g><path style="opacity:1" fill="#000000" d="M 8.5,393.5 C 9.83333,394.167 9.83333,394.167 8.5,393.5 Z"/></g>
<g><path style="opacity:1" fill="#000000" d="M 92.5,394.5 C 93.8333,395.167 93.8333,395.167 92.5,394.5 Z"/></g>
<g><path style="opacity:1" fill="#000000" d="M 248.5,400.5 C 249.833,401.167 249.833,401.167 248.5,400.5 Z"/></g>
<g><path style="opacity:1" fill="#000000" d="M 305.5,400.5 C 306.833,401.167 306.833,401.167 305.5,400.5 Z"/></g>
<g><path style="opacity:1" fill="#000000" d="M 357.5,405.5 C 358.833,406.167 358.833,406.167 357.5,405.5 Z"/></g>
<g><path style="opacity:1" fill="#000000" d="M 20.5,407.5 C 21.8333,408.167 21.8333,408.167 20.5,407.5 Z"/></g>
<g><path style="opacity:1" fill="#000000" d="M 147.5,410.5 C 148.833,411.167 148.833,411.167 147.5,410.5 Z"/></g>
<g><path style="opacity:1" fill="#000000" d="M 291.5,428.5 C 292.833,429.167 292.833,429.167 291.5,428.5 Z"/></g>
<g><path style="opacity:1" fill="#000000" d="M 142.5,430.5 C 143.833,431.167 143.833,431.167 142.5,430.5 Z"/></g>
<g><path style="opacity:1" fill="#000000" d="M 333.5,432.5 C 334.833,433.167 334.833,433.167 333.5,432.5 Z"/></g>
<g><path style="opacity:1" fill="#000000" d="M 262.5,445.5 C 263.833,446.167 263.833,446.167 262.5,445.5 Z"/></g>
<g><path style="opacity:1" fill="#000000" d="M 276.5,448.5 C 277.833,449.167 277.833,449.167 276.5,448.5 Z"/></g>
<g><path style="opacity:1" fill="#000000" d="M 462.5,455.5 C 463.833,456.167 463.833,456.167 462.5,455.5 Z"/></g>
<g><path style="opacity:1" fill="#000000" d="M 332.5,464.5 C 333.833,465.167 333.833,465.167 332.5,464.5 Z"/></g>
<g><path style="opacity:1" fill="#000000" d="M 57.5,473.5 C 58.8333,474.167 58.8333,474.167 57.5,473.5 Z"/></g>
<g><path style="opacity:1" fill="#000000" d="M 71.5,473.5 C 72.8333,474.167 72.8333,474.167 71.5,473.5 Z"/></g>
<g><path style="opacity:1" fill="#000000" d="M 107.5,475.5 C 108.833,476.167 108.833,476.167 107.5,475.5 Z"/></g>
<g><path style="opacity:1" fill="#000000" d="M 35.5,486.5 C 36.8333,487.167 36.8333,487.167 35.5,486.5 Z"/></g>
<g><path style="opacity:1" fill="#000000" d="M 34.5,489.5 C 35.8333,490.167 35.8333,490.167 34.5,489.5 Z"/></g>
<g><path style="opacity:1" fill="#000000" d="M 182.5,491.5 C 183.833,492.167 183.833,492.167 182.5,491.5 Z"/></g>
<g><path style="opacity:1" fill="#000000" d="M 73.5,496.5 C 74.8333,497.167 74.8333,497.167 73.5,496.5 Z"/></g>
</svg>
