<?xml version="1.0" encoding="UTF-8"?>
<!DOCTYPE svg PUBLIC "-//W3C//DTD SVG 1.1//EN" "http://www.w3.org/Graphics/SVG/1.1/DTD/svg11.dtd">
<svg xmlns="http://www.w3.org/2000/svg" version="1.1" width="500px" height="500px" style="shape-rendering:geometricPrecision; text-rendering:geometricPrecision; image-rendering:optimizeQuality; fill-rule:evenodd; clip-rule:evenodd" xmlns:xlink="http://www.w3.org/1999/xlink">
<g><path style="opacity:1" fill="#f9faf9" d="M 31.5,0.5 C 32.8333,1.16667 32.8333,1.16667 31.5,0.5 Z"/></g>
<g><path style="opacity:1" fill="#f9faf9" d="M 63.5,1.5 C 64.8333,2.16667 64.8333,2.16667 63.5,1.5 Z"/></g>
<g><path style="opacity:1" fill="#f9faf9" d="M 300.5,4.5 C 301.833,5.16667 301.833,5.16667 300.5,4.5 Z"/></g>
<g><path style="opacity:1" fill="#f9faf9" d="M 282.5,5.5 C 283.833,6.16667 283.833,6.16667 282.5,5.5 Z"/></g>
<g><path style="opacity:1" fill="#f9faf9" d="M 65.5,12.5 C 66.8333,13.1667 66.8333,13.1667 65.5,12.5 Z"/></g>
<g><path style="opacity:1" fill="#f9faf9" d="M 60.5,25.5 C 61.8333,26.1667 61.8333,26.1667 60.5,25.5 Z"/></g>
<g><path style="opacity:1" fill="#f9faf9" d="M 485.5,26.5 C 486.833,27.1667 486.833,27.1667 485.5,26.5 Z"/></g>
<g><path style="opacity:1" fill="#f9faf9" d="M 493.5,36.5 C 494.833,37.1667 494.833,37.1667 493.5,36.5 Z"/></g>
<g><path style="opacity:1" fill="#f9faf9" d="M 151.5,40.5 C 152.833,41.1667 152.833,41.1667 151.5,40.5 Z"/></g>
<g><path style="opacity:1" fill="#f9faf9" d="M 246.5,44.5 C 247.833,45.1667 247.833,45.1667 246.5,44.5 Z"/></g>
<g><path style="opacity:1" fill="#f9faf9" d="M 448.5,53.5 C 449.833,54.1667 449.833,54.1667 448.5,53.5 Z"/></g>
<g><path style="opacity:1" fill="#f9faf9" d="M 387.5,54.5 C 388.833,55.1667 388.833,55.1667 387.5,54.5 Z"/></g>
<g><path style="opacity:1" fill="#f9faf9" d="M 313.5,59.5 C 314.833,60.1667 314.833,60.1667 313.5,59.5 Z"/></g>
<g><path style="opacity:1" fill="#f9faf9" d="M 495.5,66.5 C 496.833,67.1667 496.833,67.1667 495.5,66.5 Z"/></g>
<g><path style="opacity:1" fill="#f9faf9" d="M 34.5,76.5 C 35.8333,77.1667 35.8333,77.1667 34.5,76.5 Z"/></g>
<g><path style="opacity:1" fill="#f9faf9" d="M 421.5,80.5 C 422.833,81.1667 422.833,81.1667 421.5,80.5 Z"/></g>
<g><path style="opacity:1" fill="#f9faf9" d="M 303.5,81.5 C 304.833,82.1667 304.833,82.1667 303.5,81.5 Z"/></g>
<g><path style="opacity:1" fill="#f9faf9" d="M 214.5,87.5 C 215.833,88.1667 215.833,88.1667 214.5,87.5 Z"/></g>
<g><path style="opacity:1" fill="#f9faf9" d="M 463.5,88.5 C 464.833,89.1667 464.833,89.1667 463.5,88.5 Z"/></g>
<g><path style="opacity:1" fill="#f9faf9" d="M 493.5,89.5 C 494.833,90.1667 494.833,90.1667 493.5,89.5 Z"/></g>
<g><path style="opacity:1" fill="#000000" d="M 240.5,91.5 C 299.737,90.6422 342.237,116.642 368,169.5C 373.694,183.278 377.028,197.611 378,212.5C 378.667,273.167 378.667,333.833 378,394.5C 373.397,405.793 365.564,408.626 354.5,403C 344.212,389.59 334.045,376.09 324,362.5C 317.411,374.677 311.078,387.01 305,399.5C 300.422,405.055 294.588,406.888 287.5,405C 284.438,403.939 281.938,402.106 280,399.5C 269.994,386.001 259.827,372.667 249.5,359.5C 238.757,373.321 228.257,387.321 218,401.5C 210.153,407.81 202.487,407.477 195,400.5C 188.667,387.833 182.333,375.167 176,362.5C 165.621,376.09 155.121,389.59 144.5,403C 135.26,407.707 127.76,405.874 122,397.5C 120.344,334.558 120.011,271.558 121,208.5C 127.645,157.871 154.145,122.038 200.5,101C 213.593,96.2197 226.926,93.0531 240.5,91.5 Z M 249.5,120.5 C 298.858,124.026 331.024,149.359 346,196.5C 347.655,204.417 348.655,212.417 349,220.5C 349.472,262.384 349.472,304.384 349,346.5C 342.62,338.242 336.12,330.076 329.5,322C 321.707,317.827 314.874,318.993 309,325.5C 302.667,338.167 296.333,350.833 290,363.5C 280.333,350.5 270.667,337.5 261,324.5C 254.063,318.368 246.897,318.035 239.5,323.5C 229.469,336.524 219.469,349.524 209.5,362.5C 203.078,350.657 196.911,338.657 191,326.5C 184.531,318.624 177.031,317.457 168.5,323C 162.546,330.41 156.713,337.91 151,345.5C 150.333,298.833 150.333,252.167 151,205.5C 163.07,152.92 195.903,124.587 249.5,120.5 Z"/></g>
<g><path style="opacity:1" fill="#f9faf9" d="M 66.5,96.5 C 67.8333,97.1667 67.8333,97.1667 66.5,96.5 Z"/></g>
<g><path style="opacity:1" fill="#f9faf9" d="M 342.5,102.5 C 343.833,103.167 343.833,103.167 342.5,102.5 Z"/></g>
<g><path style="opacity:1" fill="#f9faf9" d="M 96.5,107.5 C 97.8333,108.167 97.8333,108.167 96.5,107.5 Z"/></g>
<g><path style="opacity:1" fill="#f9faf9" d="M 342.5,110.5 C 343.833,111.167 343.833,111.167 342.5,110.5 Z"/></g>
<g><path style="opacity:1" fill="#f9faf9" d="M 105.5,114.5 C 106.833,115.167 106.833,115.167 105.5,114.5 Z"/></g>
<g><path style="opacity:1" fill="#f9faf9" d="M 409.5,119.5 C 410.833,120.167 410.833,120.167 409.5,119.5 Z"/></g>
<g><path style="opacity:1" fill="#f9faf9" d="M 39.5,122.5 C 40.8333,123.167 40.8333,123.167 39.5,122.5 Z"/></g>
<g><path style="opacity:1" fill="#f9faf9" d="M 450.5,130.5 C 451.833,131.167 451.833,131.167 450.5,130.5 Z"/></g>
<g><path style="opacity:1" fill="#f9faf9" d="M 390.5,138.5 C 391.833,139.167 391.833,139.167 390.5,138.5 Z"/></g>
<g><path style="opacity:1" fill="#f9faf9" d="M 107.5,164.5 C 108.833,165.167 108.833,165.167 107.5,164.5 Z"/></g>
<g><path style="opacity:1" fill="#f9faf9" d="M 104.5,173.5 C 105.833,174.167 105.833,174.167 104.5,173.5 Z"/></g>
<g><path style="opacity:1" fill="#f9faf9" d="M 429.5,175.5 C 430.833,176.167 430.833,176.167 429.5,175.5 Z"/></g>
<g><path style="opacity:1" fill="#f9faf9" d="M 31.5,176.5 C 32.8333,177.167 32.8333,177.167 31.5,176.5 Z"/></g>
<g><path style="opacity:1" fill="#f9faf9" d="M 61.5,182.5 C 62.8333,183.167 62.8333,183.167 61.5,182.5 Z"/></g>
<g><path style="opacity:1" fill="#f9faf9" d="M 122.5,187.5 C 123.833,188.167 123.833,188.167 122.5,187.5 Z"/></g>
<g><path style="opacity:1" fill="#f9faf9" d="M 410.5,188.5 C 411.833,189.167 411.833,189.167 410.5,188.5 Z"/></g>
<g><path style="opacity:1" fill="#f85252" d="M 232.5,243.5 C 230.952,243.821 230.285,244.821 230.5,246.5C 222.293,248.399 213.96,248.899 205.5,248C 202.011,246.689 199.844,244.189 199,240.5C 197.929,224.37 198.429,208.37 200.5,192.5C 202.179,192.715 203.179,192.048 203.5,190.5C 229.798,183.13 239.798,192.797 233.5,219.5C 233.5,227.674 233.166,235.674 232.5,243.5 Z"/></g>
<g><path style="opacity:1" fill="#f85252" d="M 299.5,192.5 C 300.804,208.799 300.804,225.133 299.5,241.5C 297.483,242.673 296.816,244.173 297.5,246C 297.043,246.414 296.709,246.914 296.5,247.5C 287.859,248.498 279.192,248.831 270.5,248.5C 267.812,247.976 266.312,246.309 266,243.5C 265.044,226.767 265.377,210.1 267,193.5C 268.319,191.513 270.152,190.346 272.5,190C 279.833,189.333 287.167,189.333 294.5,190C 296.653,190.099 298.319,190.933 299.5,192.5 Z"/></g>
<g><path style="opacity:1" fill="#f9faf9" d="M 412.5,191.5 C 413.833,192.167 413.833,192.167 412.5,191.5 Z"/></g>
<g><path style="opacity:1" fill="#f9faf9" d="M 39.5,198.5 C 40.8333,199.167 40.8333,199.167 39.5,198.5 Z"/></g>
<g><path style="opacity:1" fill="#ef4f4b" d="M 299.5,192.5 C 301.239,194.375 302.239,196.708 302.5,199.5C 302.592,213.736 302.425,228.069 302,242.5C 301.594,245.494 300.094,247.661 297.5,249C 288.324,249.824 279.324,249.657 270.5,248.5C 279.192,248.831 287.859,248.498 296.5,247.5C 296.709,246.914 297.043,246.414 297.5,246C 296.816,244.173 297.483,242.673 299.5,241.5C 300.804,225.133 300.804,208.799 299.5,192.5 Z"/></g>
<g><path style="opacity:1" fill="#f9faf9" d="M 397.5,212.5 C 398.833,213.167 398.833,213.167 397.5,212.5 Z"/></g>
<g><path style="opacity:1" fill="#e95859" d="M 203.5,190.5 C 203.179,192.048 202.179,192.715 200.5,192.5C 198.429,208.37 197.929,224.37 199,240.5C 199.844,244.189 202.011,246.689 205.5,248C 213.96,248.899 222.293,248.399 230.5,246.5C 230.285,244.821 230.952,243.821 232.5,243.5C 232.607,245.903 231.607,247.736 229.5,249C 220.167,249.667 210.833,249.667 201.5,249C 200.5,248.167 199.5,247.333 198.5,246.5C 197.348,229.211 197.181,211.877 198,194.5C 199.018,192.072 200.852,190.738 203.5,190.5 Z"/></g>
<g><path style="opacity:1" fill="#f9faf9" d="M 20.5,250.5 C 21.8333,251.167 21.8333,251.167 20.5,250.5 Z"/></g>
<g><path style="opacity:1" fill="#f9faf9" d="M 431.5,259.5 C 432.833,260.167 432.833,260.167 431.5,259.5 Z"/></g>
<g><path style="opacity:1" fill="#f9faf9" d="M 401.5,262.5 C 402.833,263.167 402.833,263.167 401.5,262.5 Z"/></g>
<g><path style="opacity:1" fill="#f9faf9" d="M 439.5,272.5 C 440.833,273.167 440.833,273.167 439.5,272.5 Z"/></g>
<g><path style="opacity:1" fill="#f9faf9" d="M 67.5,282.5 C 68.8333,283.167 68.8333,283.167 67.5,282.5 Z"/></g>
<g><path style="opacity:1" fill="#f9faf9" d="M 98.5,301.5 C 99.8333,302.167 99.8333,302.167 98.5,301.5 Z"/></g>
<g><path style="opacity:1" fill="#f9faf9" d="M 385.5,304.5 C 386.833,305.167 386.833,305.167 385.5,304.5 Z"/></g>
<g><path style="opacity:1" fill="#f9faf9" d="M 61.5,310.5 C 62.8333,311.167 62.8333,311.167 61.5,310.5 Z"/></g>
<g><path style="opacity:1" fill="#f9faf9" d="M 14.5,313.5 C 15.8333,314.167 15.8333,314.167 14.5,313.5 Z"/></g>
<g><path style="opacity:1" fill="#f9faf9" d="M 69.5,314.5 C 70.8333,315.167 70.8333,315.167 69.5,314.5 Z"/></g>
<g><path style="opacity:1" fill="#f9faf9" d="M 87.5,328.5 C 88.8333,329.167 88.8333,329.167 87.5,328.5 Z"/></g>
<g><path style="opacity:1" fill="#f9faf9" d="M 75.5,334.5 C 76.8333,335.167 76.8333,335.167 75.5,334.5 Z"/></g>
<g><path style="opacity:1" fill="#f9faf9" d="M 452.5,348.5 C 453.833,349.167 453.833,349.167 452.5,348.5 Z"/></g>
<g><path style="opacity:1" fill="#f9faf9" d="M 423.5,368.5 C 424.833,369.167 424.833,369.167 423.5,368.5 Z"/></g>
<g><path style="opacity:1" fill="#f9faf9" d="M 252.5,370.5 C 253.833,371.167 253.833,371.167 252.5,370.5 Z"/></g>
<g><path style="opacity:1" fill="#f9faf9" d="M 24.5,373.5 C 25.8333,374.167 25.8333,374.167 24.5,373.5 Z"/></g>
<g><path style="opacity:1" fill="#f9faf9" d="M 471.5,387.5 C 472.833,388.167 472.833,388.167 471.5,387.5 Z"/></g>
<g><path style="opacity:1" fill="#f9faf9" d="M 113.5,390.5 C 114.833,391.167 114.833,391.167 113.5,390.5 Z"/></g>
<g><path style="opacity:1" fill="#f9faf9" d="M 334.5,393.5 C 335.833,394.167 335.833,394.167 334.5,393.5 Z"/></g>
<g><path style="opacity:1" fill="#f9faf9" d="M 13.5,397.5 C 14.8333,398.167 14.8333,398.167 13.5,397.5 Z"/></g>
<g><path style="opacity:1" fill="#f9faf9" d="M 486.5,406.5 C 487.833,407.167 487.833,407.167 486.5,406.5 Z"/></g>
<g><path style="opacity:1" fill="#f9faf9" d="M 41.5,413.5 C 42.8333,414.167 42.8333,414.167 41.5,413.5 Z"/></g>
<g><path style="opacity:1" fill="#f9faf9" d="M 287.5,416.5 C 288.833,417.167 288.833,417.167 287.5,416.5 Z"/></g>
<g><path style="opacity:1" fill="#f9faf9" d="M 67.5,422.5 C 68.8333,423.167 68.8333,423.167 67.5,422.5 Z"/></g>
<g><path style="opacity:1" fill="#f9faf9" d="M 157.5,426.5 C 158.833,427.167 158.833,427.167 157.5,426.5 Z"/></g>
<g><path style="opacity:1" fill="#f9faf9" d="M 472.5,432.5 C 473.833,433.167 473.833,433.167 472.5,432.5 Z"/></g>
<g><path style="opacity:1" fill="#f9faf9" d="M 471.5,451.5 C 472.833,452.167 472.833,452.167 471.5,451.5 Z"/></g>
<g><path style="opacity:1" fill="#f9faf9" d="M 291.5,456.5 C 292.833,457.167 292.833,457.167 291.5,456.5 Z"/></g>
<g><path style="opacity:1" fill="#f9faf9" d="M 337.5,461.5 C 338.833,462.167 338.833,462.167 337.5,461.5 Z"/></g>
<g><path style="opacity:1" fill="#f9faf9" d="M 119.5,484.5 C 120.833,485.167 120.833,485.167 119.5,484.5 Z"/></g>
<g><path style="opacity:1" fill="#f9faf9" d="M 371.5,499.5 C 370.833,498.167 370.833,498.167 371.5,499.5 Z"/></g>
</svg>
